<mxfile host="app.diagrams.net" modified="2024-04-14T21:01:16.973Z" agent="Mozilla/5.0 (Windows NT 10.0; Win64; x64) AppleWebKit/537.36 (KHTML, like Gecko) Chrome/123.0.0.0 Safari/537.36 Edg/123.0.0.0" version="24.2.5" etag="B4Jf2xBVOePzB0YLywXU" type="github">
  <diagram name="PÃ¡gina-1" id="rv3jOGP4jz_nnJ1uuz-K">
    <mxGraphModel>
      <root>
        <mxCell id="0" />
        <mxCell id="1" parent="0" />
      </root>
    </mxGraphModel>
  </diagram>
</mxfile>
